<svg width="13" height="13" viewBox="0 0 13 13" fill="none" xmlns="http://www.w3.org/2000/svg">
<rect width="13" height="13" rx="6.5" fill="#097659"/>
<path fill-rule="evenodd" clip-rule="evenodd" d="M6.48928 2.79834C5.91101 2.79834 5.4305 2.81895 5.0407 2.89873C4.646 2.9795 4.32071 3.12554 4.07632 3.39327C3.83481 3.65784 3.70043 4.01074 3.62341 4.44831C3.54653 4.8851 3.52239 5.4335 3.52239 6.11298C3.52239 6.37504 3.52195 6.6211 3.52153 6.85192L3.52153 6.85239V6.8524C3.51955 7.94464 3.5182 8.69554 3.56744 9.18528C3.59683 9.47748 3.6475 9.72551 3.75891 9.90365C3.81882 9.99945 3.89839 10.0788 4.00171 10.1317C4.10318 10.1836 4.21032 10.2011 4.31286 10.2011C4.54714 10.2011 4.77431 10.0722 4.95768 9.94483C5.13668 9.82046 5.32511 9.65943 5.5033 9.50715L5.50331 9.50714L5.54549 9.47111C5.74226 9.30315 5.92708 9.14808 6.10052 9.03422C6.28042 8.9161 6.40689 8.87078 6.48928 8.87078C6.57167 8.87078 6.69814 8.9161 6.87804 9.03422C7.05148 9.14808 7.2363 9.30315 7.43307 9.47111L7.47525 9.50714C7.65344 9.65942 7.84187 9.82045 8.02088 9.94483C8.20425 10.0722 8.43142 10.2011 8.6657 10.2011C8.76824 10.2011 8.87538 10.1836 8.97685 10.1317C9.08017 10.0788 9.15974 9.99945 9.21965 9.90365C9.33106 9.72551 9.38173 9.47748 9.41112 9.18528C9.46036 8.69554 9.45901 7.94464 9.45703 6.8524V6.85239V6.85227C9.45661 6.62135 9.45617 6.37517 9.45617 6.11298C9.45617 5.4335 9.43203 4.8851 9.35515 4.44831C9.27813 4.01074 9.14375 3.65784 8.90224 3.39327C8.65785 3.12554 8.33256 2.9795 7.93786 2.89873C7.54806 2.81895 7.06755 2.79834 6.48928 2.79834ZM4.06406 6.11298C4.06406 5.43883 4.08863 4.92994 4.15688 4.54221C4.22499 4.15527 4.33217 3.91642 4.47637 3.75845C4.61769 3.60363 4.82226 3.49632 5.1493 3.42939C5.48124 3.36146 5.91434 3.34001 6.48928 3.34001C7.06422 3.34001 7.49732 3.36146 7.82926 3.42939C8.1563 3.49632 8.36087 3.60363 8.50219 3.75845C8.64639 3.91642 8.75357 4.15527 8.82168 4.54221C8.88993 4.92994 8.9145 5.43883 8.9145 6.11298C8.9145 6.3816 8.91493 6.6318 8.91532 6.86479C8.91718 7.95743 8.91839 8.67144 8.87217 9.13109C8.84368 9.41436 8.80046 9.55238 8.76041 9.61643C8.74459 9.64172 8.73404 9.64747 8.73014 9.64946C8.7244 9.6524 8.70723 9.65945 8.6657 9.65945C8.61199 9.65945 8.50558 9.62203 8.32996 9.50001C8.17427 9.39183 8.00585 9.24797 7.82093 9.09003L7.78474 9.05912C7.59187 8.8945 7.38181 8.71698 7.17532 8.58142C6.97529 8.45009 6.73676 8.32912 6.48928 8.32912C6.2418 8.32912 6.00327 8.45009 5.80324 8.58142C5.59675 8.71698 5.38669 8.8945 5.19382 9.05912L5.15762 9.09003L5.15762 9.09004C4.97271 9.24798 4.80429 9.39183 4.6486 9.50001C4.47298 9.62203 4.36657 9.65945 4.31286 9.65945C4.27133 9.65945 4.25416 9.6524 4.24842 9.64946C4.24453 9.64747 4.23397 9.64172 4.21815 9.61643C4.1781 9.55238 4.13488 9.41436 4.10639 9.13109C4.06017 8.67145 4.06138 7.95743 4.06324 6.8648C4.06363 6.63181 4.06406 6.3816 4.06406 6.11298ZM5.25148 5.22417C5.1019 5.22417 4.98064 5.34543 4.98064 5.49501C4.98064 5.64459 5.1019 5.76584 5.25148 5.76584H7.72689C7.87647 5.76584 7.99773 5.64459 7.99773 5.49501C7.99773 5.34543 7.87647 5.22417 7.72689 5.22417H5.25148Z" fill="#1FF6BD"/>
</svg>
