<svg width="1063" height="795" viewBox="0 0 1063 795" fill="none" xmlns="http://www.w3.org/2000/svg">
<g filter="url(#filter0_d_6_4586)">
<path d="M360.843 458.192C369.191 443.757 377.322 429.226 385.983 414.984C388.678 410.557 390.578 403.701 398.036 405.553C405.229 407.334 404.051 414.118 404.869 419.411C406.216 428.047 405.013 436.973 408.068 445.489C414.035 462.186 426.112 467.021 440.811 457.037C452.96 448.785 464.051 439.643 467.515 423.404C470.498 409.33 480.916 400.044 494.436 394.968C499.488 393.067 504.997 392.346 507.259 399.202C509.232 405.192 506.754 408.272 500.715 410.822C482.576 418.52 480.458 433.22 495.302 445.489C503.939 452.635 512.913 459.419 519.649 468.465C522.776 472.675 525.278 472.675 529.32 469.595C550.611 453.428 571.566 436.78 595.335 424.126C598.366 422.514 599.762 417.727 601.734 414.31C608.639 402.474 616.193 391.167 628.631 384.382C642.055 377.045 659.16 381.736 664.982 394.222C666.33 397.109 667.869 400.357 665.079 403.147C662.047 406.203 659.305 403.797 656.562 402.137C641.165 392.73 636.137 393.741 625.046 408.488C614.124 422.995 606.113 438.657 605.078 459.611C614.774 449.002 618.888 437.671 625.094 427.662C628.679 421.889 632.192 416.091 635.872 410.389C637.869 407.285 640.203 404.326 644.557 405.481C649.056 406.684 650.74 410.221 651.125 414.479C651.967 423.621 651.919 432.955 653.771 441.881C657.861 461.801 672.609 467.214 689.594 456.267C696.017 452.129 696.907 446.789 696.907 440.028C697.052 371.632 697.388 303.259 697.701 234.863C697.725 230.075 697.629 225.239 698.062 220.476C699.794 202.048 711.655 191.607 730.035 192.064C746.972 192.497 759.386 204.309 758.76 222.304C757.822 248.239 755.224 274.101 753.106 299.987C748.752 353.324 744.253 406.66 739.802 460.068C745.023 460.429 744.903 456.195 746.202 453.765C756.739 434.038 767.253 414.286 779.426 395.497C782.457 390.806 785.897 386.379 789.386 382.001C792.922 377.574 797.902 374.495 802.786 378.416C807.525 382.217 802.618 386.379 800.525 389.843C797.638 394.631 794.582 399.419 790.877 403.556C772.208 424.415 770.717 448.256 777.068 474.166C782.962 498.176 786.475 522.86 798.696 544.921C800.621 548.385 801.03 551.657 797.565 554.568C793.524 557.984 790.083 556.035 786.908 553.365C781.519 548.842 778.776 542.611 776.298 536.212C767.71 513.958 763.548 490.454 757.317 464.591C743.844 489.058 733.62 511.625 732.97 537.751C732.585 553.317 731.31 568.906 729.626 584.376C728.904 590.943 730.733 594.769 736.266 598.016C741.414 601.024 745.985 605.017 750.821 608.554C774.614 625.875 786.21 649.067 784.839 678.658C783.588 705.411 781.591 732.163 782.794 758.964C783.034 764.593 780.292 767.023 775.961 768.659C727.437 786.895 679.778 784.754 633.058 762.308C629.353 760.527 626.418 758.17 626.754 753.19C628.848 722.901 630.195 692.54 632.985 662.323C635.512 634.825 651.943 615.458 675.496 603.862C692.553 595.442 697.316 584.472 696.498 566.452C695.079 534.672 696.113 502.771 696.113 470.798C659.666 480.277 644.629 471.977 638.23 439.09C632.119 439.643 631.59 445.321 629.425 449.098C624.276 458.096 619.898 467.526 613.45 475.778C609.216 481.191 603.948 482.514 597.476 480.782C591.004 479.05 588.478 474.551 588.358 468.368C588.214 460.117 588.334 451.865 588.334 442.362C569.473 454.655 551.862 466.829 535.334 480.638C530.908 484.343 530.427 488.553 531.605 493.485C539.28 525.434 527.828 552.33 509.063 577.038C502.953 585.097 494.845 591.04 485.053 594.263C469.055 599.508 456.978 591.16 456.28 574.367C455.318 550.911 468.333 533.589 481.974 516.701C488.758 508.329 496.216 500.462 503.795 492.787C508.101 488.433 507.788 485.041 504.252 480.47C495.831 469.595 484.091 462.258 474.949 452.177C471.557 448.449 469.753 451.239 467.299 453.428C461.645 458.457 456.064 463.725 449.881 468.056C426.785 484.199 402.776 476.043 393.922 449.29C392.791 445.898 392.022 442.386 390.939 438.44C385.694 439.932 384.925 445.129 382.711 448.882C377.058 458.481 372.872 468.97 365.149 477.318C360.698 482.13 355.454 482.394 349.776 480.59C344.122 478.785 341.476 474.527 341.284 468.826C340.225 435 352.879 407.069 379.367 386.331C392.96 375.673 411.917 380.629 418.437 394.559C419.784 397.422 421.565 400.477 418.413 403.316C415.213 406.179 412.591 403.869 409.873 402.185C394.86 392.827 390.049 393.524 379.078 407.598C367.579 422.249 359.423 438.416 360.843 458.192ZM513.851 500.005C493.859 520.863 475.743 538.81 470.595 565.37C469.608 570.398 467.948 576.629 472.928 579.829C478.847 583.63 483.802 578.072 487.387 574.536C507.09 555.049 515.487 531.135 513.851 500.005ZM716.49 735.267C716.346 735.267 716.226 735.267 716.081 735.243C716.081 736.445 715.913 737.672 716.105 738.827C716.827 742.893 713.291 748.932 721.663 749.341C730.107 749.749 727.677 743.687 727.894 739.525C729.385 710.006 730.66 680.487 732.032 650.968C732.248 646.421 732.513 641.898 725.897 641.778C719.161 641.657 720.917 646.758 720.725 650.27C719.209 678.61 717.886 706.951 716.49 735.267ZM655.383 700.647C654.854 710.271 654.902 709.982 654.902 717.56C654.902 725.138 654.998 732.692 654.854 740.271C654.806 743.759 654.878 746.478 659.545 746.79C664.429 747.103 665.632 744.818 665.824 740.487C667.268 709.453 668.928 678.394 670.347 647.359C670.516 643.799 671.983 639.155 665.343 638.77C658.631 638.386 658.511 642.403 658.511 647.07C658.535 670.575 656.707 676.589 655.383 700.647ZM699.626 682.002C699.578 682.002 699.505 682.002 699.457 682.002C700.059 671.249 700.708 660.495 701.262 649.717C701.502 645.29 702.128 640.912 695.079 641.056C688.631 641.2 689.642 645.362 689.449 649.236C688.102 679.14 686.827 709.044 685.384 738.948C685.167 743.687 684.71 747.584 691.518 747.632C698.279 747.656 696.715 743.013 696.883 739.429C697.894 720.279 698.736 701.153 699.626 682.002ZM748.92 697.809C749.041 697.809 749.137 697.833 749.257 697.833C748.511 712.171 747.693 726.534 747.092 740.872C746.924 744.962 745.528 750.038 752.842 749.942C759.987 749.822 758.616 744.697 758.784 740.632C759.987 711.137 761.094 681.642 762.152 652.147C762.273 648.514 764.221 643.991 757.461 643.558C751.086 643.149 751.591 647.263 751.374 651.208C750.556 666.726 749.738 682.267 748.92 697.809Z" fill="#DF1B4F"/>
<path d="M42.7252 6C42.8455 57.8207 34.8582 106.634 41.7628 155.592C56.1013 108.15 55.2112 58.3259 66.4222 10.4266C66.4222 26.6657 66.8552 42.9289 66.3019 59.1439C65.7245 75.9122 63.5834 92.6325 63.2947 109.377C62.9819 125.712 60.5039 142.384 67.8175 158.431C83.4792 110.748 80.0871 60.2265 91.1296 11.822C95.027 60.8039 85.7888 109.858 93.0062 159.032C106.864 111.855 106.19 62.4398 117.257 14.4443C117.81 20.3385 118.652 26.2086 118.892 32.1028C121.226 91.2371 122.525 150.347 113.503 209.169C111.435 222.689 106.021 235.103 96.0375 243.812C78.0903 259.426 73.7839 279.225 72.581 301.503C68.2265 382.674 70.512 463.798 73.3509 544.921C73.399 546.484 73.2306 548.193 76.4784 549.299C80.7607 533.349 85.043 517.35 89.3734 501.352C100.729 459.299 113.479 417.703 133.544 378.801C137.369 371.391 142.156 364.414 147.064 357.654C151.371 351.736 157.553 348.657 164.939 350.942C171.772 353.059 172.734 359.386 173.576 365.425C176.992 389.82 173.937 414.142 172.181 438.416C170.569 460.814 170.4 483.14 171.291 505.514C171.363 507.078 171.435 508.714 173.913 509.676C180.601 504.431 182.814 496.276 185.749 488.673C206.271 435.433 222.389 380.581 244.787 328.039C257.947 297.149 272.117 266.763 290.401 238.471C295.838 230.051 301.684 221.944 309.166 215.183C323.336 202.409 336.28 205.945 341.211 224.301C346.071 242.369 345.349 261.086 342.823 279.129C332.791 350.99 321.219 422.635 310.923 494.447C305.101 535.129 301.732 576.124 297.955 617.046C294.635 653.253 290.088 689.316 291.003 725.788C291.099 729.806 290.906 734.665 285.878 735.315C280.08 736.085 278.95 730.984 278.084 726.63C274.691 709.429 278.156 692.323 279.238 675.242C282.63 620.992 285.902 566.717 290.906 512.611C296.897 447.775 307.723 383.565 318.501 319.354C323.048 292.169 327.065 264.863 326.729 237.172C326.68 232.577 327.186 226.25 322.663 224.638C318.645 223.219 315.277 228.56 312.558 231.855C296.223 251.751 284.723 274.582 273.488 297.534C246.014 353.54 227.225 412.867 207.281 471.737C202.157 486.845 196.479 501.809 187.698 515.257C183.608 521.536 179.687 529.476 170.689 528.297C160.801 527.022 159.598 517.615 157.842 510.061C153.825 492.787 153.873 475.249 155.34 457.591C157.626 430.117 159.502 402.594 161.258 375.096C161.451 371.969 163.351 366.844 158.804 365.786C154.955 364.896 153.127 369.515 151.226 372.45C130.849 404.014 119.085 439.259 109.245 475.033C94.3775 529.163 82.2523 584.039 65.1952 637.592C60.6483 651.882 49.0524 662.492 36.3258 662.371C23.527 662.251 13.8076 653.253 10.656 636.653C4.16036 602.419 7.57658 567.992 11.2574 533.854C19.9905 453.236 29.6617 372.738 45.6121 293.155C48.8118 277.229 47.4165 261.711 36.6626 248.816C16.1171 224.181 13.1821 196.13 16.4058 165.408C21.3618 118.086 25.9087 70.7398 35.3634 24.0434C36.3979 18.7507 37.264 13.3136 42.7252 6Z" fill="#DF1B4F"/>
<path d="M965.826 416.62C958.392 420.638 956.227 425.858 953.509 430.501C946.628 442.194 940.181 454.15 933.132 465.746C929.042 472.458 924.711 481.119 915.425 479.315C905.994 477.486 906.403 467.551 904.936 460.261C895.722 469.042 886.748 477.968 877.365 486.436C865.697 496.973 853.356 508.016 836.082 502.194C818.159 496.155 812.746 479.772 810.485 463.268C807.598 442.193 808.704 420.999 815.465 400.477C816.09 398.601 816.86 396.724 817.774 394.968C820.204 390.277 823.765 387.414 829.37 388.737C835.842 390.277 835.529 395.377 834.783 400.212C832.305 416.379 828.311 432.306 828.384 448.833C828.432 458.962 830.092 468.681 833.7 478.088C837.453 487.928 844.093 490.814 853.548 485.762C857.758 483.525 862.209 481.312 865.625 478.112C886.532 458.553 908.256 439.595 914.607 409.427C916.051 402.57 919.78 396.026 923.292 389.82C925.722 385.489 929.066 379.787 935.321 382.795C940.662 385.369 939.194 390.902 937.847 395.642C933.396 411.375 928.97 427.109 924.423 442.819C923.845 444.84 920.766 447.029 924.182 448.641C926.732 449.844 928.489 447.438 929.812 445.369C935.417 436.636 940.878 427.783 946.676 419.17C950.237 413.877 953.99 408.657 958.248 403.941C961.712 400.092 966.043 396.435 971.841 398.577C977.158 400.525 977.759 405.577 978.192 410.485C979.467 424.8 980.622 439.138 982.186 453.429C982.667 457.735 983.846 462.113 985.482 466.131C990.293 477.944 998.064 479.7 1007.71 470.967C1017.57 462.017 1024 450.301 1031.89 439.764C1035.81 434.519 1039.03 422.995 1046.54 427.927C1054.21 432.955 1045.89 441.52 1042.31 447.486C1034.87 459.828 1025.85 471.111 1015.07 480.806C998.569 495.65 982.065 492.041 973.044 471.664C967.943 460.165 966.38 447.919 965.85 435.505C965.634 429.948 965.826 424.391 965.826 416.62Z" fill="#DF1B4F"/>
<path d="M853.115 332.586C853.235 342.257 849.603 347.694 841.591 348.007C833.075 348.344 829.514 341.896 829.755 334.655C830.02 326.788 831.535 317.309 841.976 317.477C851.912 317.646 851.84 327.028 853.115 332.586Z" fill="#DF1B4F"/>
</g>
<defs>
<filter id="filter0_d_6_4586" x="0" y="0" width="1062.69" height="794.905" filterUnits="userSpaceOnUse" color-interpolation-filters="sRGB">
<feFlood flood-opacity="0" result="BackgroundImageFix"/>
<feColorMatrix in="SourceAlpha" type="matrix" values="0 0 0 0 0 0 0 0 0 0 0 0 0 0 0 0 0 0 127 0" result="hardAlpha"/>
<feOffset dx="3" dy="4"/>
<feGaussianBlur stdDeviation="5"/>
<feComposite in2="hardAlpha" operator="out"/>
<feColorMatrix type="matrix" values="0 0 0 0 0 0 0 0 0 0 0 0 0 0 0 0 0 0 0.6 0"/>
<feBlend mode="normal" in2="BackgroundImageFix" result="effect1_dropShadow_6_4586"/>
<feBlend mode="normal" in="SourceGraphic" in2="effect1_dropShadow_6_4586" result="shape"/>
</filter>
</defs>
</svg>
