<?xml version="1.0" encoding="UTF-8"?>
<svg version="1.1" xmlns="http://www.w3.org/2000/svg" width="19" height="21">
<path d="M0 0 C2.5 1.5 2.5 1.5 4 4 C4.53600366 7.86077996 4.23838748 11.28483757 3 15 C4.32 15.66 5.64 16.32 7 17 C6.01 17.99 5.02 18.98 4 20 C3.649375 19.505 3.29875 19.01 2.9375 18.5 C0.96359908 16.65565258 0.96359908 16.65565258 -2.375 17 C-6.34082359 17 -7.89617134 16.37351604 -11 14 C-12.60420518 10.79158965 -12.47462745 7.4806013 -12 4 C-9.15871837 -0.73546938 -5.07616558 -0.99858995 0 0 Z M-5 2 C-6.65 3.65 -8.3 5.3 -10 7 C-9.36078035 9.47627099 -9.36078035 9.47627099 -8 12 C-5.47627099 13.36078035 -5.47627099 13.36078035 -3 14 C-1.35 12.35 0.3 10.7 2 9 C1.36078035 6.52372901 1.36078035 6.52372901 0 4 C-2.52372901 2.63921965 -2.52372901 2.63921965 -5 2 Z " fill="#616161" transform="translate(12,1)"/>
</svg>
