<svg width="12" height="12" viewBox="0 0 12 12" fill="none" xmlns="http://www.w3.org/2000/svg">
<g clip-path="url(#clip0_358_25384)">
<path d="M8.64384 11.2504C8.57046 11.2507 8.49886 11.2261 8.43924 11.18L5.63706 8.99473L2.83488 11.18C2.77502 11.2268 2.70289 11.2518 2.62894 11.2515C2.55498 11.2512 2.48303 11.2256 2.42348 11.1784C2.36393 11.1313 2.31987 11.0649 2.29767 10.9891C2.27547 10.9132 2.27628 10.8317 2.29998 10.7563L3.39288 7.27419L0.560415 5.18473C0.499062 5.13952 0.452756 5.0744 0.428263 4.99886C0.40377 4.92333 0.402374 4.84135 0.424279 4.7649C0.446183 4.68845 0.490241 4.62154 0.550013 4.57395C0.609786 4.52635 0.682142 4.50057 0.756509 4.50036H4.2509L5.30545 1.00934C5.32817 0.933972 5.37249 0.868279 5.43207 0.821688C5.49164 0.775096 5.56341 0.75 5.63706 0.75C5.71072 0.75 5.78249 0.775096 5.84206 0.821688C5.90164 0.868279 5.94596 0.933972 5.96868 1.00934L7.02323 4.50153H10.5176C10.5921 4.50149 10.6646 4.5271 10.7245 4.5746C10.7845 4.6221 10.8287 4.68901 10.8508 4.76552C10.8728 4.84202 10.8715 4.92411 10.847 4.99976C10.8226 5.07541 10.7762 5.14064 10.7148 5.1859L7.88125 7.27419L8.97349 10.7554C8.99119 10.8117 8.99617 10.8718 8.98801 10.9306C8.97986 10.9895 8.95881 11.0454 8.92661 11.0937C8.8944 11.1421 8.85196 11.1815 8.80279 11.2088C8.75362 11.236 8.69914 11.2503 8.64384 11.2504Z" fill="#FFAD30"/>
</g>
<defs>
<clipPath id="clip0_358_25384">
<rect width="11.1556" height="12" fill="white" transform="translate(0.0592651)"/>
</clipPath>
</defs>
</svg>
