<svg width="18" height="17" viewBox="0 0 18 17" fill="none" xmlns="http://www.w3.org/2000/svg">
<path d="M9.21293 16.1146C5.50127 16.1146 2.48376 13.0971 2.48376 9.38542C2.48376 5.67375 5.50127 2.65625 9.21293 2.65625C12.9246 2.65625 15.9421 5.67375 15.9421 9.38542C15.9421 13.0971 12.9246 16.1146 9.21293 16.1146ZM9.21293 3.71875C6.08918 3.71875 3.54626 6.26167 3.54626 9.38542C3.54626 12.5092 6.08918 15.0521 9.21293 15.0521C12.3367 15.0521 14.8796 12.5092 14.8796 9.38542C14.8796 6.26167 12.3367 3.71875 9.21293 3.71875Z" fill="#A9A9A9"/>
<path d="M9.21295 9.73942C8.92253 9.73942 8.6817 9.49859 8.6817 9.20817V5.6665C8.6817 5.37609 8.92253 5.13525 9.21295 5.13525C9.50337 5.13525 9.7442 5.37609 9.7442 5.6665V9.20817C9.7442 9.49859 9.50337 9.73942 9.21295 9.73942Z" fill="#A9A9A9"/>
<path d="M11.338 1.94775H7.08795C6.79753 1.94775 6.5567 1.70692 6.5567 1.4165C6.5567 1.12609 6.79753 0.885254 7.08795 0.885254H11.338C11.6284 0.885254 11.8692 1.12609 11.8692 1.4165C11.8692 1.70692 11.6284 1.94775 11.338 1.94775Z" fill="#A9A9A9"/>
</svg>
