<svg width="7" height="7" viewBox="0 0 7 7" fill="none" xmlns="http://www.w3.org/2000/svg">
<path d="M3.50002 6.63542C1.97169 6.63542 0.729187 5.39292 0.729187 3.86458C0.729187 2.33625 1.97169 1.09375 3.50002 1.09375C5.02835 1.09375 6.27085 2.33625 6.27085 3.86458C6.27085 5.39292 5.02835 6.63542 3.50002 6.63542ZM3.50002 1.53125C2.21377 1.53125 1.16669 2.57833 1.16669 3.86458C1.16669 5.15083 2.21377 6.19792 3.50002 6.19792C4.78627 6.19792 5.83335 5.15083 5.83335 3.86458C5.83335 2.57833 4.78627 1.53125 3.50002 1.53125Z" fill="#097659"/>
<path d="M3.5 4.01058C3.38042 4.01058 3.28125 3.91141 3.28125 3.79183V2.3335C3.28125 2.21391 3.38042 2.11475 3.5 2.11475C3.61958 2.11475 3.71875 2.21391 3.71875 2.3335V3.79183C3.71875 3.91141 3.61958 4.01058 3.5 4.01058Z" fill="#097659"/>
<path d="M4.375 0.802246H2.625C2.50542 0.802246 2.40625 0.703079 2.40625 0.583496C2.40625 0.463913 2.50542 0.364746 2.625 0.364746H4.375C4.49458 0.364746 4.59375 0.463913 4.59375 0.583496C4.59375 0.703079 4.49458 0.802246 4.375 0.802246Z" fill="#097659"/>
</svg>
