<svg
          width="23"
          height="23"
          viewBox="0 0 23 23"
          fill="none"
          xmlns="http://www.w3.org/2000/svg"
        >
          <rect
            x="0.666667"
            y="0.666667"
            width="21.3333"
            height="21.3333"
            rx="10.6667"
            stroke="#109F79"
            stroke-width="1.33333"
          />
          <path
            d="M9.84517 17V9.36364H11.9631V17H9.84517ZM10.9091 8.37926C10.5942 8.37926 10.3241 8.27486 10.0987 8.06605C9.87666 7.85393 9.76562 7.60038 9.76562 7.3054C9.76562 7.01373 9.87666 6.76349 10.0987 6.55469C10.3241 6.34257 10.5942 6.23651 10.9091 6.23651C11.224 6.23651 11.4924 6.34257 11.7145 6.55469C11.9399 6.76349 12.0526 7.01373 12.0526 7.3054C12.0526 7.60038 11.9399 7.85393 11.7145 8.06605C11.4924 8.27486 11.224 8.37926 10.9091 8.37926Z"
            fill="#109F79"
          />
        </svg>