<svg width="15" height="14" viewBox="0 0 15 14" fill="none" xmlns="http://www.w3.org/2000/svg">
<path d="M11.4458 14.0001C11.348 14.0005 11.2526 13.9677 11.1731 13.9064L7.43682 10.9926L3.70058 13.9064C3.62076 13.9686 3.52459 14.002 3.42599 14.0016C3.32738 14.0012 3.23144 13.9671 3.15204 13.9042C3.07264 13.8413 3.0139 13.7529 2.9843 13.6517C2.9547 13.5505 2.95578 13.4418 2.98738 13.3414L4.44458 8.69855L0.667955 5.91261C0.586151 5.85233 0.52441 5.7655 0.491753 5.66478C0.459096 5.56407 0.457235 5.45477 0.486441 5.35284C0.515647 5.25091 0.57439 5.16169 0.654087 5.09823C0.733784 5.03477 0.830258 5.00039 0.929414 5.00011H5.5886L6.99467 0.345423C7.02496 0.24493 7.08406 0.15734 7.16349 0.0952175C7.24293 0.0330952 7.33861 -0.000366211 7.43682 -0.000366211C7.53503 -0.000366211 7.63072 0.0330952 7.71015 0.0952175C7.78959 0.15734 7.84869 0.24493 7.87898 0.345423L9.28504 5.00167H13.9442C14.0435 5.00162 14.1402 5.03576 14.2201 5.0991C14.3001 5.16244 14.359 5.25165 14.3884 5.35365C14.4178 5.45566 14.4161 5.56511 14.3835 5.66598C14.3508 5.76684 14.289 5.85382 14.2071 5.91417L10.4291 8.69855L11.8854 13.3401C11.909 13.4153 11.9156 13.4954 11.9048 13.5738C11.8939 13.6523 11.8658 13.7268 11.8229 13.7913C11.7799 13.8558 11.7233 13.9083 11.6578 13.9447C11.5922 13.981 11.5196 14 11.4458 14.0001Z" fill="#FFAD30"/>
</svg>
