<svg
            width="23"
            height="23"
            viewBox="0 0 23 23"
            fill="none"
            xmlns="http://www.w3.org/2000/svg"
          >
            <path
              d="M11.4507 21.8194C6.50185 21.8194 2.47852 17.7961 2.47852 12.8472C2.47852 7.89833 6.50185 3.875 11.4507 3.875C16.3996 3.875 20.423 7.89833 20.423 12.8472C20.423 17.7961 16.3996 21.8194 11.4507 21.8194ZM11.4507 5.29167C7.28574 5.29167 3.89518 8.68222 3.89518 12.8472C3.89518 17.0122 7.28574 20.4028 11.4507 20.4028C15.6157 20.4028 19.0063 17.0122 19.0063 12.8472C19.0063 8.68222 15.6157 5.29167 11.4507 5.29167Z"
              fill="#A9A9A9"
            />
            <path
              d="M11.4505 13.3196C11.0633 13.3196 10.7422 12.9984 10.7422 12.6112V7.889C10.7422 7.50178 11.0633 7.18066 11.4505 7.18066C11.8377 7.18066 12.1589 7.50178 12.1589 7.889V12.6112C12.1589 12.9984 11.8377 13.3196 11.4505 13.3196Z"
              fill="#A9A9A9"
            />
            <path
              d="M14.2842 2.9307H8.61751C8.23029 2.9307 7.90918 2.60959 7.90918 2.22237C7.90918 1.83515 8.23029 1.51404 8.61751 1.51404H14.2842C14.6714 1.51404 14.9925 1.83515 14.9925 2.22237C14.9925 2.60959 14.6714 2.9307 14.2842 2.9307Z"
              fill="#A9A9A9"
            />
          </svg>